<svg xmlns="http://www.w3.org/2000/svg" width="956" height="474" viewBox="0 0 956 474" role="img">
<rect width="956" height="474" fill="#FFFFFF"/>
<style>text{font-family:-apple-system,BlinkMacSystemFont,"Segoe UI",sans-serif;fill:#1F2933;font-size:13px} .title{font-size:22px;font-weight:700} .subtitle{font-size:13px;fill:#52616B} .small{font-size:11px;fill:#52616B}</style>
<text x="30" y="34" class="title">Resolved link richness by sea and decade</text>
<text x="30" y="58" class="subtitle">All sea-decade strata; unique predator-prey name pairs after requiring prey TSN &gt; 0.</text>
<text x="171.0" y="74" text-anchor="middle" class="small">1830</text>
<text x="213.0" y="74" text-anchor="middle" class="small">1840</text>
<text x="255.0" y="74" text-anchor="middle" class="small">1850</text>
<text x="297.0" y="74" text-anchor="middle" class="small">1880</text>
<text x="339.0" y="74" text-anchor="middle" class="small">1890</text>
<text x="381.0" y="74" text-anchor="middle" class="small">1900</text>
<text x="423.0" y="74" text-anchor="middle" class="small">1910</text>
<text x="465.0" y="74" text-anchor="middle" class="small">1920</text>
<text x="507.0" y="74" text-anchor="middle" class="small">1930</text>
<text x="549.0" y="74" text-anchor="middle" class="small">1940</text>
<text x="591.0" y="74" text-anchor="middle" class="small">1950</text>
<text x="633.0" y="74" text-anchor="middle" class="small">1960</text>
<text x="675.0" y="74" text-anchor="middle" class="small">1970</text>
<text x="717.0" y="74" text-anchor="middle" class="small">1980</text>
<text x="759.0" y="74" text-anchor="middle" class="small">1990</text>
<text x="801.0" y="74" text-anchor="middle" class="small">2000</text>
<text x="843.0" y="74" text-anchor="middle" class="small">2010</text>
<text x="885.0" y="74" text-anchor="middle" class="small">2020</text>
<text x="140" y="106" text-anchor="end" class="small">North Sea</text>
<rect x="150" y="86" width="40" height="28" fill="#F3F6F8" stroke="#FFFFFF"/>
<rect x="192" y="86" width="40" height="28" fill="#F3F6F8" stroke="#FFFFFF"/>
<rect x="234" y="86" width="40" height="28" fill="#F3F6F8" stroke="#FFFFFF"/>
<rect x="276" y="86" width="40" height="28" fill="#A9BDCD" stroke="#FFFFFF"/>
<text x="297.0" y="105" text-anchor="middle" fill="#FFFFFF" class="small">789</text>
<rect x="318" y="86" width="40" height="28" fill="#BFCEDA" stroke="#FFFFFF"/>
<rect x="360" y="86" width="40" height="28" fill="#3C698F" stroke="#FFFFFF"/>
<text x="381.0" y="105" text-anchor="middle" fill="#FFFFFF" class="small">1,946</text>
<rect x="402" y="86" width="40" height="28" fill="#EFF3F5" stroke="#FFFFFF"/>
<rect x="444" y="86" width="40" height="28" fill="#DAE3EA" stroke="#FFFFFF"/>
<rect x="486" y="86" width="40" height="28" fill="#D4DEE6" stroke="#FFFFFF"/>
<rect x="528" y="86" width="40" height="28" fill="#F2F5F7" stroke="#FFFFFF"/>
<rect x="570" y="86" width="40" height="28" fill="#C9D5E0" stroke="#FFFFFF"/>
<rect x="612" y="86" width="40" height="28" fill="#C3D1DC" stroke="#FFFFFF"/>
<rect x="654" y="86" width="40" height="28" fill="#36648B" stroke="#FFFFFF"/>
<text x="675.0" y="105" text-anchor="middle" fill="#FFFFFF" class="small">2,012</text>
<rect x="696" y="86" width="40" height="28" fill="#B9C9D6" stroke="#FFFFFF"/>
<rect x="738" y="86" width="40" height="28" fill="#8FA9BF" stroke="#FFFFFF"/>
<text x="759.0" y="105" text-anchor="middle" fill="#FFFFFF" class="small">1,061</text>
<rect x="780" y="86" width="40" height="28" fill="#95AEC2" stroke="#FFFFFF"/>
<text x="801.0" y="105" text-anchor="middle" fill="#FFFFFF" class="small">997</text>
<rect x="822" y="86" width="40" height="28" fill="#CCD8E2" stroke="#FFFFFF"/>
<rect x="864" y="86" width="40" height="28" fill="#F0F3F6" stroke="#FFFFFF"/>
<text x="140" y="136" text-anchor="end" class="small">Irish Sea</text>
<rect x="150" y="116" width="40" height="28" fill="#F1F4F7" stroke="#FFFFFF"/>
<rect x="192" y="116" width="40" height="28" fill="#F3F6F8" stroke="#FFFFFF"/>
<rect x="234" y="116" width="40" height="28" fill="#F3F6F8" stroke="#FFFFFF"/>
<rect x="276" y="116" width="40" height="28" fill="#F3F6F8" stroke="#FFFFFF"/>
<rect x="318" y="116" width="40" height="28" fill="#E5EBF0" stroke="#FFFFFF"/>
<rect x="360" y="116" width="40" height="28" fill="#DFE7ED" stroke="#FFFFFF"/>
<rect x="402" y="116" width="40" height="28" fill="#DAE2E9" stroke="#FFFFFF"/>
<rect x="444" y="116" width="40" height="28" fill="#EEF2F5" stroke="#FFFFFF"/>
<rect x="486" y="116" width="40" height="28" fill="#F2F5F7" stroke="#FFFFFF"/>
<rect x="528" y="116" width="40" height="28" fill="#F3F6F8" stroke="#FFFFFF"/>
<rect x="570" y="116" width="40" height="28" fill="#C0CEDA" stroke="#FFFFFF"/>
<rect x="612" y="116" width="40" height="28" fill="#DAE3EA" stroke="#FFFFFF"/>
<rect x="654" y="116" width="40" height="28" fill="#D3DEE6" stroke="#FFFFFF"/>
<rect x="696" y="116" width="40" height="28" fill="#91AABF" stroke="#FFFFFF"/>
<text x="717.0" y="135" text-anchor="middle" fill="#FFFFFF" class="small">1,047</text>
<rect x="738" y="116" width="40" height="28" fill="#EFF3F6" stroke="#FFFFFF"/>
<rect x="780" y="116" width="40" height="28" fill="#D4DEE6" stroke="#FFFFFF"/>
<rect x="822" y="116" width="40" height="28" fill="#BCCBD8" stroke="#FFFFFF"/>
<rect x="864" y="116" width="40" height="28" fill="#EFF3F6" stroke="#FFFFFF"/>
<text x="140" y="166" text-anchor="end" class="small">Channel</text>
<rect x="150" y="146" width="40" height="28" fill="#F3F6F8" stroke="#FFFFFF"/>
<rect x="192" y="146" width="40" height="28" fill="#F3F6F8" stroke="#FFFFFF"/>
<rect x="234" y="146" width="40" height="28" fill="#F3F6F8" stroke="#FFFFFF"/>
<rect x="276" y="146" width="40" height="28" fill="#F2F5F7" stroke="#FFFFFF"/>
<rect x="318" y="146" width="40" height="28" fill="#F3F6F8" stroke="#FFFFFF"/>
<rect x="360" y="146" width="40" height="28" fill="#E7EDF1" stroke="#FFFFFF"/>
<rect x="402" y="146" width="40" height="28" fill="#AABECE" stroke="#FFFFFF"/>
<text x="423.0" y="165" text-anchor="middle" fill="#FFFFFF" class="small">778</text>
<rect x="444" y="146" width="40" height="28" fill="#D3DDE5" stroke="#FFFFFF"/>
<rect x="486" y="146" width="40" height="28" fill="#C9D6E0" stroke="#FFFFFF"/>
<rect x="528" y="146" width="40" height="28" fill="#F2F5F7" stroke="#FFFFFF"/>
<rect x="570" y="146" width="40" height="28" fill="#F3F6F8" stroke="#FFFFFF"/>
<rect x="612" y="146" width="40" height="28" fill="#EFF3F6" stroke="#FFFFFF"/>
<rect x="654" y="146" width="40" height="28" fill="#EFF3F6" stroke="#FFFFFF"/>
<rect x="696" y="146" width="40" height="28" fill="#E2E9EE" stroke="#FFFFFF"/>
<rect x="738" y="146" width="40" height="28" fill="#D9E2E9" stroke="#FFFFFF"/>
<rect x="780" y="146" width="40" height="28" fill="#DAE3EA" stroke="#FFFFFF"/>
<rect x="822" y="146" width="40" height="28" fill="#E0E7ED" stroke="#FFFFFF"/>
<rect x="864" y="146" width="40" height="28" fill="#F1F4F7" stroke="#FFFFFF"/>
<text x="140" y="196" text-anchor="end" class="small">Celtic Sea</text>
<rect x="150" y="176" width="40" height="28" fill="#F3F6F8" stroke="#FFFFFF"/>
<rect x="192" y="176" width="40" height="28" fill="#F3F6F8" stroke="#FFFFFF"/>
<rect x="234" y="176" width="40" height="28" fill="#F3F6F8" stroke="#FFFFFF"/>
<rect x="276" y="176" width="40" height="28" fill="#F2F5F7" stroke="#FFFFFF"/>
<rect x="318" y="176" width="40" height="28" fill="#F3F6F8" stroke="#FFFFFF"/>
<rect x="360" y="176" width="40" height="28" fill="#F3F6F8" stroke="#FFFFFF"/>
<rect x="402" y="176" width="40" height="28" fill="#F3F6F8" stroke="#FFFFFF"/>
<rect x="444" y="176" width="40" height="28" fill="#F1F5F7" stroke="#FFFFFF"/>
<rect x="486" y="176" width="40" height="28" fill="#F3F6F8" stroke="#FFFFFF"/>
<rect x="528" y="176" width="40" height="28" fill="#F3F6F8" stroke="#FFFFFF"/>
<rect x="570" y="176" width="40" height="28" fill="#F3F6F8" stroke="#FFFFFF"/>
<rect x="612" y="176" width="40" height="28" fill="#ECF1F4" stroke="#FFFFFF"/>
<rect x="654" y="176" width="40" height="28" fill="#DAE3EA" stroke="#FFFFFF"/>
<rect x="696" y="176" width="40" height="28" fill="#C4D2DD" stroke="#FFFFFF"/>
<rect x="738" y="176" width="40" height="28" fill="#A2B7C9" stroke="#FFFFFF"/>
<text x="759.0" y="195" text-anchor="middle" fill="#FFFFFF" class="small">866</text>
<rect x="780" y="176" width="40" height="28" fill="#ECF0F4" stroke="#FFFFFF"/>
<rect x="822" y="176" width="40" height="28" fill="#BDCCD9" stroke="#FFFFFF"/>
<rect x="864" y="176" width="40" height="28" fill="#F2F5F7" stroke="#FFFFFF"/>
<text x="140" y="226" text-anchor="end" class="small">Freshwater</text>
<rect x="150" y="206" width="40" height="28" fill="#F3F6F8" stroke="#FFFFFF"/>
<rect x="192" y="206" width="40" height="28" fill="#F3F6F8" stroke="#FFFFFF"/>
<rect x="234" y="206" width="40" height="28" fill="#F3F6F8" stroke="#FFFFFF"/>
<rect x="276" y="206" width="40" height="28" fill="#F3F6F8" stroke="#FFFFFF"/>
<rect x="318" y="206" width="40" height="28" fill="#F3F6F8" stroke="#FFFFFF"/>
<rect x="360" y="206" width="40" height="28" fill="#F3F6F8" stroke="#FFFFFF"/>
<rect x="402" y="206" width="40" height="28" fill="#F2F5F7" stroke="#FFFFFF"/>
<rect x="444" y="206" width="40" height="28" fill="#E8EDF1" stroke="#FFFFFF"/>
<rect x="486" y="206" width="40" height="28" fill="#CCD8E2" stroke="#FFFFFF"/>
<rect x="528" y="206" width="40" height="28" fill="#E6ECF0" stroke="#FFFFFF"/>
<rect x="570" y="206" width="40" height="28" fill="#E6ECF0" stroke="#FFFFFF"/>
<rect x="612" y="206" width="40" height="28" fill="#BCCCD8" stroke="#FFFFFF"/>
<rect x="654" y="206" width="40" height="28" fill="#DDE5EB" stroke="#FFFFFF"/>
<rect x="696" y="206" width="40" height="28" fill="#E6ECF1" stroke="#FFFFFF"/>
<rect x="738" y="206" width="40" height="28" fill="#EDF1F4" stroke="#FFFFFF"/>
<rect x="780" y="206" width="40" height="28" fill="#F3F6F8" stroke="#FFFFFF"/>
<rect x="822" y="206" width="40" height="28" fill="#F3F6F8" stroke="#FFFFFF"/>
<rect x="864" y="206" width="40" height="28" fill="#F3F6F8" stroke="#FFFFFF"/>
<text x="140" y="256" text-anchor="end" class="small">W Scotland</text>
<rect x="150" y="236" width="40" height="28" fill="#F3F6F8" stroke="#FFFFFF"/>
<rect x="192" y="236" width="40" height="28" fill="#F3F6F8" stroke="#FFFFFF"/>
<rect x="234" y="236" width="40" height="28" fill="#F3F6F8" stroke="#FFFFFF"/>
<rect x="276" y="236" width="40" height="28" fill="#EEF2F5" stroke="#FFFFFF"/>
<rect x="318" y="236" width="40" height="28" fill="#F2F5F7" stroke="#FFFFFF"/>
<rect x="360" y="236" width="40" height="28" fill="#E9EEF2" stroke="#FFFFFF"/>
<rect x="402" y="236" width="40" height="28" fill="#F3F6F8" stroke="#FFFFFF"/>
<rect x="444" y="236" width="40" height="28" fill="#F1F5F7" stroke="#FFFFFF"/>
<rect x="486" y="236" width="40" height="28" fill="#EBF0F4" stroke="#FFFFFF"/>
<rect x="528" y="236" width="40" height="28" fill="#F2F6F8" stroke="#FFFFFF"/>
<rect x="570" y="236" width="40" height="28" fill="#EAEFF3" stroke="#FFFFFF"/>
<rect x="612" y="236" width="40" height="28" fill="#D6DFE7" stroke="#FFFFFF"/>
<rect x="654" y="236" width="40" height="28" fill="#EAEFF3" stroke="#FFFFFF"/>
<rect x="696" y="236" width="40" height="28" fill="#E2E9EE" stroke="#FFFFFF"/>
<rect x="738" y="236" width="40" height="28" fill="#E4EAEF" stroke="#FFFFFF"/>
<rect x="780" y="236" width="40" height="28" fill="#F3F6F8" stroke="#FFFFFF"/>
<rect x="822" y="236" width="40" height="28" fill="#F3F6F8" stroke="#FFFFFF"/>
<rect x="864" y="236" width="40" height="28" fill="#F3F6F8" stroke="#FFFFFF"/>
<text x="140" y="286" text-anchor="end" class="small">W Ireland</text>
<rect x="150" y="266" width="40" height="28" fill="#F3F6F8" stroke="#FFFFFF"/>
<rect x="192" y="266" width="40" height="28" fill="#F3F6F8" stroke="#FFFFFF"/>
<rect x="234" y="266" width="40" height="28" fill="#F3F6F8" stroke="#FFFFFF"/>
<rect x="276" y="266" width="40" height="28" fill="#F3F6F8" stroke="#FFFFFF"/>
<rect x="318" y="266" width="40" height="28" fill="#F3F6F8" stroke="#FFFFFF"/>
<rect x="360" y="266" width="40" height="28" fill="#F3F6F8" stroke="#FFFFFF"/>
<rect x="402" y="266" width="40" height="28" fill="#F3F6F8" stroke="#FFFFFF"/>
<rect x="444" y="266" width="40" height="28" fill="#F1F5F7" stroke="#FFFFFF"/>
<rect x="486" y="266" width="40" height="28" fill="#F2F6F8" stroke="#FFFFFF"/>
<rect x="528" y="266" width="40" height="28" fill="#F3F6F8" stroke="#FFFFFF"/>
<rect x="570" y="266" width="40" height="28" fill="#F2F5F7" stroke="#FFFFFF"/>
<rect x="612" y="266" width="40" height="28" fill="#F3F6F8" stroke="#FFFFFF"/>
<rect x="654" y="266" width="40" height="28" fill="#D9E2E9" stroke="#FFFFFF"/>
<rect x="696" y="266" width="40" height="28" fill="#CFDAE3" stroke="#FFFFFF"/>
<rect x="738" y="266" width="40" height="28" fill="#F1F5F7" stroke="#FFFFFF"/>
<rect x="780" y="266" width="40" height="28" fill="#F3F6F8" stroke="#FFFFFF"/>
<rect x="822" y="266" width="40" height="28" fill="#F2F5F7" stroke="#FFFFFF"/>
<rect x="864" y="266" width="40" height="28" fill="#F3F6F8" stroke="#FFFFFF"/>
<text x="140" y="316" text-anchor="end" class="small">Spitzbergen (Gree...</text>
<rect x="150" y="296" width="40" height="28" fill="#F3F6F8" stroke="#FFFFFF"/>
<rect x="192" y="296" width="40" height="28" fill="#F3F6F8" stroke="#FFFFFF"/>
<rect x="234" y="296" width="40" height="28" fill="#F3F6F8" stroke="#FFFFFF"/>
<rect x="276" y="296" width="40" height="28" fill="#F3F6F8" stroke="#FFFFFF"/>
<rect x="318" y="296" width="40" height="28" fill="#F3F6F8" stroke="#FFFFFF"/>
<rect x="360" y="296" width="40" height="28" fill="#F3F6F8" stroke="#FFFFFF"/>
<rect x="402" y="296" width="40" height="28" fill="#F3F6F8" stroke="#FFFFFF"/>
<rect x="444" y="296" width="40" height="28" fill="#F3F6F8" stroke="#FFFFFF"/>
<rect x="486" y="296" width="40" height="28" fill="#EAEFF3" stroke="#FFFFFF"/>
<rect x="528" y="296" width="40" height="28" fill="#E4EBEF" stroke="#FFFFFF"/>
<rect x="570" y="296" width="40" height="28" fill="#D3DDE6" stroke="#FFFFFF"/>
<rect x="612" y="296" width="40" height="28" fill="#EFF3F6" stroke="#FFFFFF"/>
<rect x="654" y="296" width="40" height="28" fill="#F3F6F8" stroke="#FFFFFF"/>
<rect x="696" y="296" width="40" height="28" fill="#F3F6F8" stroke="#FFFFFF"/>
<rect x="738" y="296" width="40" height="28" fill="#F3F6F8" stroke="#FFFFFF"/>
<rect x="780" y="296" width="40" height="28" fill="#F3F6F8" stroke="#FFFFFF"/>
<rect x="822" y="296" width="40" height="28" fill="#F3F6F8" stroke="#FFFFFF"/>
<rect x="864" y="296" width="40" height="28" fill="#F3F6F8" stroke="#FFFFFF"/>
<text x="140" y="346" text-anchor="end" class="small">Norwegian Sea</text>
<rect x="150" y="326" width="40" height="28" fill="#F3F6F8" stroke="#FFFFFF"/>
<rect x="192" y="326" width="40" height="28" fill="#F3F6F8" stroke="#FFFFFF"/>
<rect x="234" y="326" width="40" height="28" fill="#F3F6F8" stroke="#FFFFFF"/>
<rect x="276" y="326" width="40" height="28" fill="#F3F6F8" stroke="#FFFFFF"/>
<rect x="318" y="326" width="40" height="28" fill="#F3F6F8" stroke="#FFFFFF"/>
<rect x="360" y="326" width="40" height="28" fill="#F3F6F8" stroke="#FFFFFF"/>
<rect x="402" y="326" width="40" height="28" fill="#F3F6F8" stroke="#FFFFFF"/>
<rect x="444" y="326" width="40" height="28" fill="#F3F6F8" stroke="#FFFFFF"/>
<rect x="486" y="326" width="40" height="28" fill="#F1F4F7" stroke="#FFFFFF"/>
<rect x="528" y="326" width="40" height="28" fill="#ECF0F4" stroke="#FFFFFF"/>
<rect x="570" y="326" width="40" height="28" fill="#F1F4F7" stroke="#FFFFFF"/>
<rect x="612" y="326" width="40" height="28" fill="#EFF3F6" stroke="#FFFFFF"/>
<rect x="654" y="326" width="40" height="28" fill="#EBF0F4" stroke="#FFFFFF"/>
<rect x="696" y="326" width="40" height="28" fill="#F0F4F7" stroke="#FFFFFF"/>
<rect x="738" y="326" width="40" height="28" fill="#EFF3F6" stroke="#FFFFFF"/>
<rect x="780" y="326" width="40" height="28" fill="#EAEFF3" stroke="#FFFFFF"/>
<rect x="822" y="326" width="40" height="28" fill="#F1F4F7" stroke="#FFFFFF"/>
<rect x="864" y="326" width="40" height="28" fill="#F3F6F8" stroke="#FFFFFF"/>
<text x="140" y="376" text-anchor="end" class="small">Skagerrak</text>
<rect x="150" y="356" width="40" height="28" fill="#F3F6F8" stroke="#FFFFFF"/>
<rect x="192" y="356" width="40" height="28" fill="#F3F6F8" stroke="#FFFFFF"/>
<rect x="234" y="356" width="40" height="28" fill="#F3F6F8" stroke="#FFFFFF"/>
<rect x="276" y="356" width="40" height="28" fill="#F3F6F8" stroke="#FFFFFF"/>
<rect x="318" y="356" width="40" height="28" fill="#F3F6F8" stroke="#FFFFFF"/>
<rect x="360" y="356" width="40" height="28" fill="#F3F6F8" stroke="#FFFFFF"/>
<rect x="402" y="356" width="40" height="28" fill="#F3F6F8" stroke="#FFFFFF"/>
<rect x="444" y="356" width="40" height="28" fill="#F3F6F8" stroke="#FFFFFF"/>
<rect x="486" y="356" width="40" height="28" fill="#F3F6F8" stroke="#FFFFFF"/>
<rect x="528" y="356" width="40" height="28" fill="#F3F6F8" stroke="#FFFFFF"/>
<rect x="570" y="356" width="40" height="28" fill="#F3F6F8" stroke="#FFFFFF"/>
<rect x="612" y="356" width="40" height="28" fill="#F3F6F8" stroke="#FFFFFF"/>
<rect x="654" y="356" width="40" height="28" fill="#F3F6F8" stroke="#FFFFFF"/>
<rect x="696" y="356" width="40" height="28" fill="#DDE5EB" stroke="#FFFFFF"/>
<rect x="738" y="356" width="40" height="28" fill="#EFF3F6" stroke="#FFFFFF"/>
<rect x="780" y="356" width="40" height="28" fill="#F3F6F8" stroke="#FFFFFF"/>
<rect x="822" y="356" width="40" height="28" fill="#F3F6F8" stroke="#FFFFFF"/>
<rect x="864" y="356" width="40" height="28" fill="#F3F6F8" stroke="#FFFFFF"/>
<text x="150" y="450" class="small">Darker cells indicate more unique predator-prey pairs.</text>
</svg>
